<?xml version="1.0" encoding="UTF-8"?>
<!-- (c) Carrd Inc. All rights reserved. All logos and trademarks are property of their respective owners. -->
<svg xmlns="http://www.w3.org/2000/svg" version="1.1" xmlns:xlink="http://www.w3.org/1999/xlink" viewBox="0 0 40 40" display="none" width="0" height="0">
	<symbol id="arrow-left" viewBox="0 0 40 40"><path d="M19.5,7l2.3,2.3c.4.4.4,1,0,1.4l-6.7,6.7h18.4c.5,0,1,.4,1,1v3.2c0,.5-.4,1-1,1H15.1s6.8,6.8,6.8,6.8c.4.4.4,1,0,1.4l-2.3,2.3c-.4.4-1,.4-1.4,0l-12.3-12.3c-.4-.4-.4-1,0-1.4l12.3-12.3c.4-.4,1-.4,1.4,0Z" /></symbol>
</svg>
