<?xml version="1.0" encoding="UTF-8"?>
<!-- (c) Carrd Inc. All rights reserved. All logos and trademarks are property of their respective owners. -->
<svg xmlns="http://www.w3.org/2000/svg" version="1.1" xmlns:xlink="http://www.w3.org/1999/xlink" viewBox="0 0 40 40" display="none" width="0" height="0">
	<symbol id="arrow-left" viewBox="0 0 40 40"><path d="M34.2,18.7v2.5c0,0.7-0.2,1.3-0.6,1.8c-0.4,0.5-1,0.7-1.7,0.7H18.1l5.8,5.8c0.5,0.5,0.7,1.1,0.7,1.8c0,0.7-0.2,1.3-0.7,1.8 l-1.5,1.5c-0.5,0.5-1.1,0.7-1.8,0.7c-0.7,0-1.3-0.2-1.8-0.7L6.1,21.8c-0.5-0.5-0.7-1.1-0.7-1.8c0-0.7,0.2-1.3,0.7-1.8L18.8,5.4 c0.5-0.5,1.1-0.7,1.8-0.7c0.7,0,1.3,0.2,1.8,0.7l1.5,1.5c0.5,0.5,0.7,1.1,0.7,1.8s-0.2,1.3-0.7,1.8l-5.8,5.8h13.8 c0.7,0,1.2,0.2,1.7,0.7C34,17.5,34.2,18,34.2,18.7z"/></symbol>
</svg>
